<?xml version="1.0" standalone="no"?>
<!DOCTYPE svg PUBLIC "-//W3C//DTD SVG 20010904//EN"
 "http://www.w3.org/TR/2001/REC-SVG-20010904/DTD/svg10.dtd">
<svg version="1.0" xmlns="http://www.w3.org/2000/svg"
 width="96.000000pt" height="96.000000pt" viewBox="0 0 96.000000 96.000000"
 preserveAspectRatio="xMidYMid meet">
<metadata>
Created by potrace 1.14, written by Peter Selinger 2001-2017
</metadata>
<g transform="translate(0.000000,96.000000) scale(0.100000,-0.100000)"
fill="#000000" stroke="none">
<path d="M477 805 c-9 -9 -17 -31 -17 -49 l0 -33 -46 23 c-83 42 -181 6 -213
-79 -9 -24 -8 -31 14 -53 13 -13 29 -24 35 -24 21 0 8 -16 -28 -32 -21 -10
-45 -31 -55 -48 -36 -60 -25 -158 21 -188 23 -15 27 -15 62 4 l37 21 -5 -46
c-7 -77 57 -149 140 -158 54 -6 78 13 78 61 l0 33 46 -23 c56 -28 113 -24 162
13 64 48 72 110 17 135 -33 15 -32 20 13 40 45 21 72 63 76 120 6 90 -43 145
-102 114 -17 -9 -32 -16 -34 -16 -2 0 -2 19 0 43 6 73 -59 145 -140 154 -33 4
-49 1 -61 -12z m117 -52 c43 -31 56 -79 35 -125 -13 -29 -103 -93 -118 -83 -7
4 -11 50 -11 122 l0 116 35 -6 c19 -3 46 -14 59 -24z m-197 -42 c13 -6 27 -20
33 -31 15 -27 24 -136 13 -143 -13 -8 -203 101 -203 116 1 21 26 46 60 61 38
16 65 15 97 -3z m366 -128 c15 -29 12 -84 -5 -116 -12 -23 -65 -46 -94 -41
-40 7 -114 45 -114 58 0 10 177 123 197 126 1 0 9 -12 16 -27z m-395 -75 c23
-10 42 -25 42 -32 0 -8 -44 -39 -97 -69 -107 -61 -117 -61 -127 3 -7 47 19 99
58 116 34 14 59 10 124 -18z m126 -4 c9 -3 16 -14 16 -24 0 -20 -23 -32 -45
-24 -18 7 -20 40 -2 47 6 3 13 6 14 6 1 1 8 -2 17 -5z m149 -141 c42 -25 77
-51 77 -58 0 -18 -50 -65 -70 -66 -8 0 -24 -2 -34 -4 -25 -5 -73 20 -86 45
-13 24 -24 116 -16 136 6 17 5 18 129 -53z m-185 -68 l3 -118 -35 6 c-85 14
-132 95 -90 155 21 30 94 83 108 79 7 -2 12 -49 14 -122z"/>
</g>
</svg>
